# xmcd
#
# Track frame offsets:
#	150
#	15007
#	34852
#	49469
#	67311
#	87141
#	102733
#	132448
#	164008
#	181220
#
# Disc length: 2653 seconds
#
# Revision: 0
# Processed by: cddbd v1.5.2PL0 Copyright (c) Steve Scherf et al.
# Submitted via: EasyCDDAExtractor 16.0.6.1
#
DISCID=8b0a5b0a
DTITLE=Σουρέλη Γαλάτεια-Ελλ. βυζ. χορ. Λυκ. Αγγελοπούλου - Αύριο είναι Κυριακή
DTITLE=1
DYEAR=1999
DGENRE=Ποικίλη
TTITLE0=Μέρος 1
TTITLE1=Μέρος 2
TTITLE2=Μέρος 3
TTITLE3=Μέρος 4
TTITLE4=Μέρος 5
TTITLE5=Μέρος 6
TTITLE6=Μέρος 8
TTITLE7=Μέρος 9
TTITLE8=Μέρος 10
TTITLE9=Μέρος 11
EXTD=
EXTT0=
EXTT1=
EXTT2=
EXTT3=
EXTT4=
EXTT5=
EXTT6=
EXTT7=
EXTT8=
EXTT9=
PLAYORDER=
